<svg id="visual" viewBox="0 0 900 450" width="900" height="450" xmlns="http://www.w3.org/2000/svg" xmlns:xlink="http://www.w3.org/1999/xlink" version="1.1"><rect x="0" y="0" width="900" height="450" fill="#202020"></rect><path d="M0 254L12.5 247.3C25 240.7 50 227.3 75 226.2C100 225 125 236 150 241C175 246 200 245 225 248.2C250 251.3 275 258.7 300 258.5C325 258.3 350 250.7 375 241.2C400 231.7 425 220.3 450 223.8C475 227.3 500 245.7 525 256C550 266.3 575 268.7 600 262.2C625 255.7 650 240.3 675 232C700 223.7 725 222.3 750 220.5C775 218.7 800 216.3 825 217C850 217.7 875 221.3 887.5 223.2L900 225L900 451L887.5 451C875 451 850 451 825 451C800 451 775 451 750 451C725 451 700 451 675 451C650 451 625 451 600 451C575 451 550 451 525 451C500 451 475 451 450 451C425 451 400 451 375 451C350 451 325 451 300 451C275 451 250 451 225 451C200 451 175 451 150 451C125 451 100 451 75 451C50 451 25 451 12.5 451L0 451Z" fill="#1a1a1a"></path><path d="M0 297L12.5 295.5C25 294 50 291 75 292.3C100 293.7 125 299.3 150 302.7C175 306 200 307 225 312.2C250 317.3 275 326.7 300 323.3C325 320 350 304 375 304C400 304 425 320 450 327.3C475 334.7 500 333.3 525 321.5C550 309.7 575 287.3 600 280.8C625 274.3 650 283.7 675 293.8C700 304 725 315 750 323C775 331 800 336 825 329.8C850 323.7 875 306.3 887.5 297.7L900 289L900 451L887.5 451C875 451 850 451 825 451C800 451 775 451 750 451C725 451 700 451 675 451C650 451 625 451 600 451C575 451 550 451 525 451C500 451 475 451 450 451C425 451 400 451 375 451C350 451 325 451 300 451C275 451 250 451 225 451C200 451 175 451 150 451C125 451 100 451 75 451C50 451 25 451 12.5 451L0 451Z" fill="#101010"></path><path d="M0 342L12.5 350.5C25 359 50 376 75 375.5C100 375 125 357 150 359.3C175 361.7 200 384.3 225 395.2C250 406 275 405 300 401.7C325 398.3 350 392.7 375 391.5C400 390.3 425 393.7 450 384.7C475 375.7 500 354.3 525 347.3C550 340.3 575 347.7 600 353.5C625 359.3 650 363.7 675 366.5C700 369.3 725 370.7 750 375.5C775 380.3 800 388.7 825 387.3C850 386 875 375 887.5 369.5L900 364L900 451L887.5 451C875 451 850 451 825 451C800 451 775 451 750 451C725 451 700 451 675 451C650 451 625 451 600 451C575 451 550 451 525 451C500 451 475 451 450 451C425 451 400 451 375 451C350 451 325 451 300 451C275 451 250 451 225 451C200 451 175 451 150 451C125 451 100 451 75 451C50 451 25 451 12.5 451L0 451Z" fill="#000000"></path></svg>